<?xml version="1.0" encoding="UTF-8" standalone="no"?>
<svg width="161px" height="42px" viewBox="0 0 161 42" version="1.1" xmlns="http://www.w3.org/2000/svg" xmlns:xlink="http://www.w3.org/1999/xlink">
    <!-- Generator: Sketch 50.2 (55047) - http://www.bohemiancoding.com/sketch -->
    <title>Group 93</title>
    <desc>Created with Sketch.</desc>
    <defs></defs>
    <g id="Website" stroke="none" stroke-width="1" fill="none" fill-rule="evenodd">
        <g id="Home" transform="translate(-1050.000000, -4227.000000)">
            <g id="Group-93" transform="translate(1050.000000, 4227.000000)">
                <g id="Group-9" fill="#8147FF">
                    <path d="M2.91658686,14.965172 C4.98554392,6.37131084 12.5224589,0 21.684983,0 C30.8475071,0 38.3844221,6.37131084 40.4533792,14.965172 C42.163931,14.965172 43.369966,14.965172 43.369966,19.2621025 C43.369966,23.5590331 42.163931,23.5590331 40.4533792,23.5590331 C39.7144659,26.5224335 38.3844221,29.1894938 36.4632477,31.5602141 L36.4632477,35.5608047 C36.4632477,35.5608047 33.5075948,41.4876055 21.684983,41.4876055 C9.86237126,41.4876055 6.90671833,35.5608047 6.90671833,35.5608047 L6.90671833,31.5602141 C4.98554392,29.3376639 3.6555001,26.5224335 2.91658686,23.5590331 C1.20603504,23.5590331 1.3500312e-13,23.5590331 1.13686838e-13,19.2621025 C9.23705556e-14,14.965172 1.20603504,14.965172 2.91658686,14.965172 Z M21.8182823,31.3958073 C36.7072732,31.3958073 37.1458793,23.2810471 37.1458793,19.1729536 C37.1458793,15.06486 35.6579895,6.51258923 21.8182823,6.51258923 C7.9785751,6.51258923 6.27138222,14.7290264 6.27138222,19.1735013 C6.27138222,22.7399879 6.92929134,28.4529304 14.6228216,30.5708885 C15.3777085,30.7787019 11.7968156,34.5959949 12.7071087,34.7291635 C13.2068136,34.8022663 15.3853771,34.1305948 17.1515836,33.1735973 C18.5418054,32.4203225 20.0377676,31.3562916 20.0377676,31.3562916 C20.0377676,31.3562916 21.1994099,31.3958073 21.8182823,31.3958073 Z" id="Combined-Shape"></path>
                </g>
                <g id="Group" transform="translate(55.695652, 10.956522)" fill="#092131">
                    <path d="M0,0.963843916 C0,0.702861742 0.08982058,0.482078987 0.270089856,0.302123769 C0.451301306,0.118399855 0.67208406,0.0320339132 0.932752177,0.0320339132 C1.19404841,0.0320339132 1.41514522,0.118399855 1.59698479,0.302123769 C1.78102276,0.482078987 1.86927305,0.702861742 1.86927305,0.963843916 L1.86927305,7.2939964 C2.5309932,6.54967901 3.32493175,5.96113437 4.25140277,5.52961872 C5.17504726,5.09904524 6.18066089,4.88360147 7.26384684,4.88360147 C8.26946046,4.88360147 9.21571713,5.07486277 10.0960216,5.45864161 C10.9794667,5.83896582 11.7517353,6.35433495 12.4049758,7.00757553 C13.0566461,7.6623864 13.5732715,8.4305722 13.9542238,9.31433134 C14.3383167,10.1943218 14.5267515,11.1424628 14.5267515,12.1483905 L14.5267515,18.5991412 C14.5267515,18.8582391 14.4369309,19.0796499 14.2560335,19.2630598 C14.0763924,19.4389322 13.8515269,19.5337777 13.592429,19.5337777 C13.3327031,19.5337777 13.1116063,19.4389322 12.9291386,19.2630598 C12.7494974,19.0796499 12.6574785,18.8582391 12.6574785,18.5991412 L12.6574785,12.1483905 C12.6574785,11.4068996 12.5183508,10.70498 12.2385251,10.0526816 C11.9549308,9.39849887 11.5686395,8.82848365 11.0768247,8.33258612 C10.5850099,7.84234162 10.0099697,7.45667843 9.35986974,7.17622466 C8.70380264,6.89168814 8.00470959,6.75130423 7.26384684,6.75130423 C6.53868698,6.75130423 5.85749524,6.88729133 5.21399045,7.15989365 C4.57142784,7.42966945 4.01177654,7.79743133 3.52655697,8.25941061 C3.04447798,8.72358829 2.65190552,9.26973511 2.34915363,9.90319003 C2.05268291,10.5325622 1.88466189,11.2159524 1.86927305,11.9364013 L1.86927305,18.5991412 C1.86927305,18.8582391 1.78102276,19.0796499 1.59698479,19.2630598 C1.41514522,19.4389322 1.19404841,19.5337777 0.932752177,19.5337777 C0.67208406,19.5337777 0.451301306,19.4389322 0.270089856,19.2630598 C0.08982058,19.0796499 0,18.8582391 0,18.5991412 L0,0.963843916" id="Fill-42"></path>
                    <path d="M18.3369028,12.2382111 C18.3369028,12.9784457 18.4760305,13.6800512 18.7571124,14.3317215 C19.0385083,14.9859043 19.4273121,15.5581179 19.9159863,16.0496186 C20.4109417,16.5439459 20.9828412,16.9324356 21.6329412,17.2122612 C22.287438,17.4924009 22.9868452,17.6359254 23.7305344,17.6359254 C24.4754799,17.6359254 25.1786557,17.4924009 25.8406899,17.2122612 C26.5039804,16.9324356 27.0796486,16.5439459 27.574604,16.0496186 C28.0698734,15.5581179 28.4514539,14.9859043 28.7363044,14.3317215 C29.0183285,13.6800512 29.1574562,12.9784457 29.1574562,12.2382111 C29.1574562,11.4938937 29.0183285,10.7932303 28.7363044,10.1302539 C28.4514539,9.4663354 28.0698734,8.88501409 27.574604,8.39445554 C27.0796486,7.90421104 26.5039804,7.51760568 25.8406899,7.23715191 C25.1786557,6.95135915 24.4754799,6.81223147 23.7305344,6.81223147 C22.9868452,6.81223147 22.287438,6.95135915 21.6329412,7.23715191 C20.9828412,7.51760568 20.4109417,7.90421104 19.9159863,8.39445554 C19.4273121,8.88501409 19.0385083,9.4663354 18.7571124,10.1302539 C18.4760305,10.7932303 18.3369028,11.4938937 18.3369028,12.2382111 Z M23.7924039,4.91343697 C24.7568759,4.91343697 25.6754955,5.11066538 26.550461,5.50323785 C27.4235421,5.89235567 28.192042,6.41903089 28.8540762,7.08640408 C29.5189369,7.74655394 30.04467,8.5210209 30.4391268,9.40446598 C30.8295008,10.2879111 31.0261011,11.2363661 31.0261011,12.2382111 C31.0261011,13.2227828 30.8332695,14.1517663 30.4532594,15.0251615 C30.0694805,15.8994989 29.5547395,16.6661144 28.8996146,17.3341157 C28.2473162,17.9958359 27.477246,18.5190564 26.5953713,18.8984385 C25.7103559,19.2797049 24.7568759,19.4722224 23.7305344,19.4722224 C22.7271192,19.4722224 21.7868296,19.2916391 20.9099798,18.928274 C20.0412954,18.5705619 19.2718534,18.0699535 18.6091911,17.4236222 C17.9452725,16.777605 17.4195395,16.0163285 17.0417277,15.1291147 C16.6592051,14.2453556 16.4644892,13.283396 16.4644892,12.2382111 C16.4644892,11.2363661 16.6507256,10.2926219 17.0247686,9.41954076 C17.3966132,8.54583148 17.9082137,7.78204249 18.5620824,7.12943003 C19.2121824,6.4765035 19.9894759,5.9526548 20.8829708,5.56228074 C21.7764657,5.17190668 22.7469049,4.95520668 23.7924039,4.91343697 Z" id="Fill-43"></path>
                    <path d="M32.8947461,5.78620408 C32.8947461,5.52585002 32.9845666,5.30726567 33.1670343,5.12416987 C33.343849,4.94515683 33.5646317,4.85502219 33.8265561,4.85502219 C34.0903648,4.85502219 34.3089491,4.94515683 34.4917308,5.12416987 C34.6710579,5.30726567 34.7655894,5.52585002 34.7655894,5.78620408 L34.7655894,12.2382111 C34.7655894,12.9784457 34.9025187,13.6800512 35.1873693,14.3317215 C35.4671949,14.9859043 35.8512878,15.5581179 36.3462432,16.0496186 C36.8364877,16.5439459 37.4105856,16.9324356 38.0631981,17.2122612 C38.7176949,17.4924009 39.417102,17.6359254 40.159221,17.6359254 C40.9003978,17.6359254 41.6023174,17.4924009 42.2521033,17.2122612 C42.9066002,16.9324356 43.4788138,16.5439459 43.9725129,16.0496186 C44.4624433,15.5581179 44.8490487,14.9859043 45.1310728,14.3317215 C45.4137249,13.6800512 45.5566213,12.9784457 45.5566213,12.2382111 L45.5566213,5.78620408 C45.5566213,5.52585002 45.6433013,5.30726567 45.8282815,5.12416987 C46.0063523,4.94515683 46.2296476,4.85502219 46.4909438,4.85502219 C46.7506697,4.85502219 46.9695681,4.94515683 47.1542342,5.12416987 C47.3307348,5.30726567 47.423696,5.52585002 47.423696,5.78620408 L47.423696,12.2382111 C47.423696,13.2441387 47.2308644,14.1878829 46.8524245,15.0716421 C46.4664473,15.9569715 45.9513922,16.723587 45.30035,17.3746292 C44.6420845,18.0319525 43.8757831,18.5501482 42.9901396,18.928274 C42.1051242,19.3123669 41.1620081,19.5039422 40.159221,19.5039422 C39.1507809,19.5039422 38.2086069,19.3123669 37.3245338,18.928274 C36.4404606,18.5501482 35.6725888,18.0319525 35.0196623,17.3746292 C34.3664217,16.723587 33.8494823,15.9569715 33.468844,15.0716421 C33.0847511,14.1878829 32.8947461,13.2441387 32.8947461,12.2382111 L32.8947461,5.78620408" id="Fill-44"></path>
                    <path d="M49.3881286,18.5705619 C49.3881286,18.3061251 49.4763789,18.0856564 49.65602,17.9057012 C49.840058,17.7266882 50.0586424,17.6359254 50.3215089,17.6359254 L57.9556301,17.6359254 C58.5378935,17.6359254 59.0410144,17.4236222 59.4618521,17.0018424 C59.8808054,16.5791203 60.0959351,16.073487 60.0959351,15.4934219 C60.0959351,14.9083319 59.8808054,14.4058392 59.4618521,13.9859437 C59.0410144,13.5632216 58.5378935,13.3543731 57.9556301,13.3543731 L53.3047455,13.3543731 C52.7231102,13.3543731 52.1753931,13.2441387 51.6615942,13.023356 C51.1474813,12.7984905 50.7027753,12.4995073 50.3215089,12.1179269 C49.9380441,11.7347761 49.6374906,11.29007 49.4167079,10.7762712 C49.1981235,10.2637286 49.0853767,9.71444119 49.0853767,9.13437612 C49.0853767,8.55054235 49.1981235,8.00251119 49.4167079,7.47426568 C49.6374906,6.95135915 49.9380441,6.49848756 50.3215089,6.12161799 C50.7027753,5.73658292 51.1474813,5.43791379 51.6615942,5.21681697 C52.1753931,4.99226552 52.7231102,4.88360147 53.3047455,4.88360147 L60.5789563,4.88360147 C60.8380541,4.88360147 61.0616634,4.97405016 61.2406764,5.15369132 C61.4212598,5.336159 61.5110804,5.55851205 61.5110804,5.81823799 C61.5110804,6.0804764 61.4212598,6.29686234 61.2406764,6.48090031 C61.0616634,6.66116959 60.8380541,6.75130423 60.5789563,6.75130423 L53.3047455,6.75130423 C52.6634392,6.77108988 52.1091269,7.01260046 51.6468335,7.47426568 C51.1829699,7.93750119 50.95622,8.4933838 50.95622,9.13437612 C50.95622,9.77725279 51.1829699,10.3284245 51.6468335,10.7932303 C52.1091269,11.2530112 52.6634392,11.4819595 53.3047455,11.4819595 L57.9556301,11.4819595 C58.4967519,11.4819595 59.0187163,11.5921938 59.5077046,11.8007283 C60.0017177,12.0117753 60.4272663,12.2994524 60.7865486,12.6609331 C61.1508559,13.023356 61.4372767,13.4492186 61.6451831,13.9435458 C61.8606269,14.4341044 61.9667785,14.9491595 61.9667785,15.4934219 C61.9667785,16.0329735 61.8606269,16.5521114 61.6451831,17.0470667 C61.4372767,17.5391956 61.1508559,17.9672566 60.7865486,18.3262248 C60.4272663,18.6908462 60.0017177,18.977267 59.5077046,19.1876859 C59.0187163,19.3984188 58.4967519,19.5039422 57.9556301,19.5039422 L50.3215089,19.5039422 C50.0586424,19.5039422 49.840058,19.4100389 49.65602,19.2322821 C49.4763789,19.0548393 49.3881286,18.8299738 49.3881286,18.5705619" id="Fill-45"></path>
                    <path d="M76.1665956,12.2382111 C76.1665956,12.9784457 76.3050952,13.6800512 76.5871193,14.3317215 C76.8697714,14.9859043 77.2557487,15.5581179 77.7481916,16.0496186 C78.2390642,16.5439459 78.8141043,16.9324356 79.4642043,17.2122612 C80.1187012,17.4924009 80.8146536,17.6359254 81.5592851,17.6359254 C82.3039165,17.6359254 83.0064642,17.4924009 83.6713249,17.2122612 C84.3339873,16.9324356 84.9087133,16.5439459 85.4058671,16.0496186 C85.8961116,15.5581179 86.2849154,14.9859043 86.564741,14.3317215 C86.8473932,13.6800512 86.9865209,12.9784457 86.9865209,12.2382111 C86.9865209,11.4938937 86.8473932,10.7932303 86.564741,10.1302539 C86.2849154,9.4663354 85.8961116,8.88501409 85.4058671,8.39445554 C84.9087133,7.90421104 84.3339873,7.51760568 83.6713249,7.23715191 C83.0064642,6.95135915 82.3039165,6.81223147 81.5592851,6.81223147 C80.8146536,6.81223147 80.1187012,6.95135915 79.4642043,7.23715191 C78.8141043,7.51760568 78.2390642,7.90421104 77.7481916,8.39445554 C77.2557487,8.88501409 76.8697714,9.4663354 76.5871193,10.1302539 C76.3050952,10.7932303 76.1665956,11.4938937 76.1665956,12.2382111 Z M81.6217826,4.91343697 C82.5868828,4.91343697 83.5067586,5.11066538 84.3801538,5.50323785 C85.2519787,5.89235567 86.0236191,6.41903089 86.6869096,7.08640408 C87.3480016,7.74655394 87.8759331,8.5210209 88.2675634,9.40446598 C88.6582515,10.2879111 88.8567361,11.2363661 88.8567361,12.2382111 C88.8567361,13.2227828 88.6629623,14.1517663 88.2845225,15.0251615 C87.8979171,15.8994989 87.382548,16.6661144 86.7280512,17.3341157 C86.0779512,17.9958359 85.3072529,18.5190564 84.4260062,18.8984385 C83.5431893,19.2797049 82.5868828,19.4722224 81.5592851,19.4722224 C80.5561839,19.4722224 79.6180927,19.2916391 78.7428132,18.928274 C77.869732,18.5705619 77.0987197,18.0699535 76.4398261,17.4236222 C75.7743372,16.777605 75.2498604,16.0163285 74.8692221,15.1291147 C74.4857574,14.2453556 74.2951242,13.283396 74.2951242,12.2382111 C74.2951242,11.2363661 74.4823027,10.2926219 74.8538333,9.41954076 C75.2234795,8.54583148 75.7388487,7.78204249 76.3933455,7.12943003 C77.0434455,6.4765035 77.8188546,5.9526548 78.7132917,5.56228074 C79.6071007,5.17190668 80.5769117,4.95520668 81.6217826,4.91343697 Z" id="Fill-46"></path>
                    <path d="M90.4731925,12.1179269 C90.4731925,11.1135695 90.6597429,10.1691971 91.0450921,9.28638018 C91.4244741,8.39822423 91.9436119,7.63003843 92.5959103,6.97522756 C93.2526055,6.32544162 94.0170226,5.80630379 94.9039224,5.42597958 C95.7854831,5.04534132 96.7298554,4.85502219 97.7367253,4.85502219 C98.7423389,4.85502219 99.6867112,5.04534132 100.570156,5.42597958 C101.454544,5.80630379 102.222415,6.32544162 102.876284,6.97522756 C103.525442,7.63003843 104.043009,8.39822423 104.429615,9.28638018 C104.805856,10.1691971 105.000258,11.1135695 105.000258,12.1179269 L105.000258,18.5705619 C105.000258,18.8299738 104.908239,19.0548393 104.728598,19.2322821 C104.548015,19.4100389 104.328174,19.5039422 104.068134,19.5039422 C103.80621,19.5039422 103.582914,19.4100389 103.403273,19.2322821 C103.223632,19.0548393 103.131613,18.8299738 103.131613,18.5705619 L103.131613,12.1179269 C103.131613,11.3736095 102.990915,10.6782851 102.708263,10.0237883 C102.426239,9.372118 102.040262,8.79707786 101.550959,8.30463496 C101.056004,7.81439046 100.481906,7.42276017 99.8296076,7.14293452 C99.1795076,6.86310886 98.4779021,6.72209684 97.7367253,6.72209684 C96.9911516,6.72209684 96.2926867,6.86310886 95.6419586,7.14293452 C94.9880899,7.42276017 94.4152482,7.81439046 93.921235,8.30463496 C93.4325608,8.79707786 93.0412445,9.372118 92.7617329,10.0237883 C92.4812792,10.6782851 92.3418374,11.3736095 92.3418374,12.1179269 L92.3418374,18.5705619 C92.3418374,18.8299738 92.2485622,19.0548393 92.0660945,19.2322821 C91.8877096,19.4100389 91.667555,19.5039422 91.4065728,19.5039422 C91.1449625,19.5039422 90.9232376,19.4100389 90.741398,19.2322821 C90.5633271,19.0548393 90.4731925,18.8299738 90.4731925,18.5705619 L90.4731925,12.1179269" id="Fill-47"></path>
                    <path d="M72.5244653,17.6359254 L71.2572414,17.6359254 C70.5144943,17.6359254 69.8135169,17.4924009 69.1590201,17.2122612 C68.5067217,16.9324356 67.9348221,16.5439459 67.4458339,16.0496186 C66.9515066,15.5581179 66.5655294,14.9859043 66.2825631,14.3317215 C66.0005391,13.6800512 65.8598411,12.9784457 65.8598411,12.2382111 L65.8598411,6.66116959 L72.5244653,6.66116959 C72.8438623,6.66116959 73.1017039,6.57103495 73.2929652,6.39107973 C73.4814,6.20861205 73.5759314,5.99065582 73.5759314,5.72873147 C73.5759314,5.46492277 73.4814,5.2435119 73.2929652,5.06669726 C73.1017039,4.88360147 72.8438623,4.7922106 72.5244653,4.7922106 L65.8598411,4.7922106 L65.8598411,0.931810003 C65.8598411,0.674910582 65.7700205,0.449731016 65.5897512,0.271660146 C65.4126225,0.0935892757 65.1849305,0 64.9270889,0 C64.6657927,0 64.4450099,0.0935892757 64.2656828,0.271660146 C64.082587,0.449731016 63.9927665,0.674910582 63.9927665,0.931810003 L63.9927665,12.2382111 C63.9927665,13.2441387 64.1827715,14.1878829 64.5656082,15.0716421 C64.9440481,15.9569715 65.4631859,16.723587 66.1176827,17.3746292 C66.7715514,18.0319525 67.5406794,18.5501482 68.4238104,18.928274 C69.3085117,19.3123669 70.2516278,19.5039422 71.2572414,19.5039422 L72.5244653,19.5039422 C72.8438623,19.5039422 73.1017039,19.4100389 73.2929652,19.2322821 C73.4814,19.0548393 73.5759314,18.8299738 73.5759314,18.5705619 C73.5759314,18.3061251 73.4814,18.0856564 73.2929652,17.9057012 C73.1017039,17.7266882 72.8438623,17.6359254 72.5244653,17.6359254" id="Fill-48"></path>
                </g>
            </g>
        </g>
    </g>
</svg>